<svg xmlns="http://www.w3.org/2000/svg" version="1.1" xmlns:xlink="http://www.w3.org/1999/xlink" xmlns:svgjs="http://svgjs.dev/svgjs" viewBox="0 0 2400 800" opacity="1"><defs><linearGradient x1="50%" y1="0%" x2="50%" y2="100%" id="sssurf-grad"><stop stop-color="#eeeeee" stop-opacity="1" offset="0%"></stop><stop stop-color="#7dbcd9ff" stop-opacity="1" offset="100%"></stop></linearGradient></defs><g fill="url(#sssurf-grad)" transform="matrix(1,0,0,1,0,-36.562896728515625)"><path d="M 0 320.37928671349704 Q 600 450 600 321.4672610325902 Q 1200 450 1200 322.46016803391865 Q 1800 450 1800 318.49716416873395 Q 2400 450 2400 317.12578397398005 L 2400 800 L 0 800 L 0 317.32566808891227 Z" transform="matrix(1,0,0,1,0,52)" opacity="0.05"></path><path d="M 0 320.37928671349704 Q 600 450 600 321.4672610325902 Q 1200 450 1200 322.46016803391865 Q 1800 450 1800 318.49716416873395 Q 2400 450 2400 317.12578397398005 L 2400 800 L 0 800 L 0 317.32566808891227 Z" transform="matrix(1,0,0,1,0,104)" opacity="1.00"></path></g></svg>