<svg xmlns="http://www.w3.org/2000/svg" version="1.1" xmlns:xlink="http://www.w3.org/1999/xlink" xmlns:svgjs="http://svgjs.dev/svgjs" viewBox="0 0 2400 800" opacity="0.58"><defs><linearGradient x1="50%" y1="0%" x2="50%" y2="100%" id="sssurf-grad"><stop stop-color="#eeeeee" stop-opacity="1" offset="0%"></stop><stop stop-color="#7e7f81ff" stop-opacity="1" offset="100%"></stop></linearGradient></defs><g fill="url(#sssurf-grad)" transform="matrix(1,0,0,1,-10.4755859375,326.3904571533203)"><path d="M-10,10C242.08333333333331,10.625,697.9166666666666,35.083333333333336,1200,13C1702.0833333333335,-9.083333333333336,2097.9166666666665,-176.625,2400,-96C2702.0833333333335,-15.375,3254.1666666666665,192.5,2650,400C2045.8333333333335,607.5,156.25,795.8333333333334,-500,900" transform="matrix(1,0,0,1,0,55)" opacity="0.05"></path><path d="M-10,10C242.08333333333331,10.625,697.9166666666666,35.083333333333336,1200,13C1702.0833333333335,-9.083333333333336,2097.9166666666665,-176.625,2400,-96C2702.0833333333335,-15.375,3254.1666666666665,192.5,2650,400C2045.8333333333335,607.5,156.25,795.8333333333334,-500,900" transform="matrix(1,0,0,1,0,110)" opacity="1.00"></path></g></svg>