<svg xmlns="http://www.w3.org/2000/svg" version="1.1" xmlns:xlink="http://www.w3.org/1999/xlink" xmlns:svgjs="http://svgjs.dev/svgjs" viewBox="0 0 640 800"><defs><filter id="uuunion-blur" x="-100%" y="-100%" width="400%" height="400%" color-interpolation-filters="sRGB">
        <feGaussianBlur in="SourceGraphic" stdDeviation="1.5 0" result="blur"></feGaussianBlur>
        <feDropShadow stdDeviation="40.61538461538461" in="blur" dx="33" dy="33" flood-color="hsl(0, 0%, 82%)" flood-opacity="0" x="0%" y="0%" width="100%" height="100%"></feDropShadow>
      </filter><filter id="uuunion-blur2" x="-100%" y="-100%" width="400%" height="400%" color-interpolation-filters="sRGB">
        <feGaussianBlur in="SourceGraphic" stdDeviation="1.5 0" result="blur"></feGaussianBlur>
        <feDropShadow stdDeviation="40.61538461538461" in="blur" dx="-33" dy="-33" flood-color="hsl(0, 0%, 82%)" flood-opacity="0" x="0%" y="0%" width="100%" height="100%"></feDropShadow>
      </filter><linearGradient gradientTransform="rotate(3, 0.5, 0.5)" x1="50%" y1="0%" x2="50%" y2="100%" id="uuunion-grad"><stop stop-color="hsl(0, 0%, 94%)" offset="10%"></stop><stop stop-color="hsl(0, 0%, 82%)" offset="90%"></stop></linearGradient><linearGradient gradientTransform="rotate(79, 0.5, 0.5)" x1="50%" y1="0%" x2="50%" y2="100%" id="uuunion-grad2"><stop stop-color="hsl(0, 0%, 94%)" offset="25%"></stop><stop stop-color="hsl(0, 0%, 82%)" offset="100%"></stop></linearGradient><linearGradient gradientTransform="rotate(328, 0.5, 0.5)" x1="50%" y1="0%" x2="50%" y2="100%" id="uuunion-grad3"><stop stop-color="hsl(0, 0%, 94%)" offset="0%"></stop><stop stop-color="hsl(0, 0%, 82%)" offset="75%"></stop></linearGradient></defs><path d="M-65.13 -77.07Q-53.24 -74.83 -41.34 -72.89 -29.44 -71.35 -17.55 -70.31 -5.65 -69.83 6.23 -69.93 18.13 -70.6 30.02 -71.81 41.92 -73.5 53.81 -75.55 65.71 -77.86 77.6 -80.29 89.5 -82.71 101.4 -84.97 113.29 -86.94 125.19 -88.52 137.08 -89.61 148.98 -90.14 160.87 -90.1 172.77 -89.47 184.66 -88.31 196.56 -86.66 208.45 -84.64 220.35 -82.34 232.25 -79.92 244.14 -77.5 256.04 -75.22 267.93 -73.21 279.83 -71.59 291.72 -70.46 303.62 -69.87 315.51 -69.86 327.41 -70.44 339.3 -71.56 351.2 -73.16 363.09 -75.16 374.99 -77.43 386.89 -79.85 398.78 -82.28 410.68 -84.58 422.57 -86.61 434.47 -88.27 446.36 -89.45 458.26 -90.09 470.15 -90.15 482.05 -89.63 493.94 -88.55 505.84 -86.99 517.74 -85.02 529.63 -82.77 541.53 -80.36 553.42 -77.92 565.32 -75.61 577.21 -73.55 589.11 -71.85 601 -70.63 612.9 -69.94 624.79 -69.82 636.69 -70.29 648.58 -71.32 660.48 -72.84 672.38 -74.78 684.27 -77.01 696.17 -79.41 696.66 -64.41 697.71 -49.42 699.25 -34.42 701.15 -19.42 703.27 -4.42 705.44 10.56 707.51 25.56 709.3 40.56 710.69 55.56 711.56 70.56 711.85 85.55 711.55 100.55 710.66 115.55 709.26 130.55 707.46 145.55 705.39 160.54 703.22 175.54 701.1 190.54 699.21 205.54 697.68 220.53 696.64 235.53 696.16 250.53 696.28 265.53 697 280.53 698.25 295.52 699.94 310.52 701.94 325.52 704.1 340.52 706.25 355.52 708.23 370.51 709.88 385.51 711.08 400.51 711.74 415.51 711.81 430.5 711.27 445.5 710.18 460.5 708.62 475.5 706.7 490.5 704.57 505.49 702.4 520.49 700.35 535.49 698.58 550.49 697.22 565.49 696.39 580.48 696.14 595.48 696.49 610.48 697.41 625.48 698.84 640.47 700.67 655.47 702.75 670.47 704.93 685.47 707.03 700.47 708.9 715.46 710.4 730.46 711.4 745.46 711.84 760.46 711.67 775.46 710.92 790.45 709.64 805.45 707.92 820.45 705.9 835.45 703.74 850.44 701.59 865.44 699.63 880.44 687.69 882.28 675.75 883.99 663.81 885.46 651.87 886.63 639.92 887.41 627.98 887.77 616.04 887.69 604.1 887.16 592.16 886.22 580.22 884.93 568.27 883.35 556.33 881.58 544.39 879.72 532.45 877.87 520.51 876.15 508.57 874.65 496.62 873.45 484.68 872.63 472.74 872.23 460.8 872.28 448.86 872.77 436.91 873.67 424.97 874.93 413.03 876.49 401.09 878.25 389.15 880.1 377.21 881.95 365.26 883.69 353.32 885.22 341.38 886.45 329.44 887.3 317.5 887.74 305.56 887.74 293.61 887.29 281.67 886.42 269.73 885.18 257.79 883.65 245.85 881.91 233.91 880.05 221.96 878.2 210.02 876.45 198.08 874.9 186.14 873.64 174.2 872.75 162.26 872.27 150.31 872.24 138.37 872.65 126.43 873.48 114.49 874.68 102.55 876.19 90.6 877.92 78.66 879.77 66.72 881.63 54.78 883.39 42.84 884.96 30.9 886.25 18.95 887.18 7.01 887.7 -4.92 887.77 -16.86 887.4 -28.8 886.6 -40.74 885.43 -52.69 883.94 -64.63 882.23 -64.34 867.24 -64.03 852.25 -63.72 837.26 -63.43 822.27 -63.18 807.29 -62.99 792.3 -62.88 777.31 -62.86 762.32 -62.92 747.33 -63.07 732.34 -63.28 717.35 -63.55 702.36 -63.86 687.37 -64.18 672.38 -64.48 657.39 -64.74 642.4 -64.95 627.41 -65.08 612.42 -65.13 597.44 -65.1 582.45 -64.98 567.46 -64.78 552.47 -64.52 537.48 -64.23 522.49 -63.91 507.5 -63.6 492.51 -63.32 477.52 -63.1 462.53 -62.94 447.54 -62.86 432.55 -62.87 417.56 -62.97 402.58 -63.14 387.59 -63.38 372.6 -63.67 357.61 -63.98 342.62 -64.29 327.63 -64.58 312.64 -64.83 297.65 -65.01 282.66 -65.11 267.67 -65.13 252.68 -65.06 237.69 -64.91 222.7 -64.69 207.72 -64.41 192.73 -64.11 177.74 -63.79 162.75 -63.49 147.76 -63.23 132.77 -63.03 117.78 -62.9 102.79 -62.86 87.8 -62.9 72.81 -63.02 57.82 -63.23 42.83 -63.49 27.84 -63.79 12.85 -64.1 -2.12 -64.41 -17.11 -64.68 -32.1 -64.91 -47.09 -65.06 -62.08 -65.13 -77.07" fill="url(#uuunion-grad)"></path><path d="M-65.13 -77.07Q-65.06 -62.08 -64.91 -47.09 -64.68 -32.1 -64.41 -17.11 -64.1 -2.12 -63.79 12.85 -63.49 27.84 -63.23 42.83 -63.02 57.82 -62.9 72.81 -62.86 87.8 -62.9 102.79 -63.03 117.78 -63.23 132.77 -63.49 147.76 -63.79 162.75 -64.11 177.74 -64.41 192.73 -64.69 207.72 -64.91 222.7 -65.06 237.69 -65.13 252.68 -65.11 267.67 -65.01 282.66 -64.83 297.65 -64.58 312.64 -64.29 327.63 -63.98 342.62 -63.67 357.61 -63.38 372.6 -63.14 387.59 -62.97 402.58 -46.84 405.16 -30.71 407.21 -1.24 408.88 3.53 408.99 13.48 402.5 23.4 395.67 33.28 388.51 43.13 381.06 52.95 373.37 62.73 365.48 72.49 357.47 82.21 349.41 91.91 341.37 101.59 333.41 111.24 325.61 120.89 318.02 130.52 310.71 140.15 303.72 149.78 297.07 159.42 290.78 169.06 284.86 178.73 279.29 188.42 274.05 198.15 269.1 207.9 264.39 217.7 259.86 227.55 255.43 237.44 251.05 247.38 246.63 257.38 242.1 267.44 237.39 277.56 232.45 287.73 227.21 297.96 221.64 308.25 215.71 318.58 209.41 328.97 202.73 339.4 195.69 349.88 188.33 360.38 180.68 370.91 172.8 381.46 164.76 392.03 156.61 402.59 148.45 413.15 140.35 423.69 132.37 434.21 124.59 444.7 117.07 455.15 109.86 465.55 103 475.89 96.51 486.16 90.41 496.37 84.69 506.5 79.33 516.55 74.3 526.52 69.55 536.4 65.02 546.19 60.64 555.9 56.34 565.52 52.05 575.06 47.68 584.52 43.15 593.9 38.41 603.22 33.39 612.48 28.04 621.69 22.33 630.86 16.22 640 9.72 637.67 -7.72 635.59 -25.18 633.96 -42.64 632.97 -60.1 632.7 -77.55 633.2 -95.01 634.4 -112.47 636.19 -129.93 623.84 -129.65 611.49 -130 599.14 -130.97 586.79 -132.48 574.44 -134.46 562.09 -136.78 549.74 -139.3 537.39 -141.85 525.04 -144.3 512.69 -146.48 500.34 -148.26 487.99 -149.54 475.64 -150.23 463.29 -150.29 450.94 -149.73 438.59 -148.57 426.24 -146.88 413.89 -144.77 401.54 -142.37 389.19 -139.82 376.84 -137.29 364.49 -134.92 352.14 -132.86 339.8 -131.24 327.45 -130.15 315.1 -129.67 302.75 -129.82 290.4 -130.59 278.05 -131.94 265.7 -133.78 253.35 -136.01 241 -138.47 228.65 -141.03 216.3 -143.53 203.95 -145.81 191.6 -147.74 179.25 -149.19 166.9 -150.07 154.55 -150.34 142.2 -149.98 129.85 -149 117.5 -147.48 105.15 -145.49 92.8 -143.17 80.45 -140.65 68.1 -138.1 55.75 -135.66 43.4 -133.48 31.06 -131.7 18.71 -130.44 6.36 -129.75 -5.98 -129.7 -18.33 -130.27 -30.68 -131.45 -43.03 -133.14 -55.38 -135.25 -67.73 -137.66 -80.08 -140.21 -92.43 -142.74 -104.78 -145.11 -117.13 -147.16 -129.48 -148.78 -142.43 -146.13 -131.9 -133.99 -120.78 -125.12 -109.66 -115.87 -98.54 -106.34 -87.42 -96.62 -76.29 -86.82 -65.13 -77.07" fill="url(#uuunion-grad2)" filter="url(#uuunion-blur)"></path><path d="M646.58 408.75Q662.71 407.65 678.83 405.77 694.96 403.31 711.08 400.51 711.74 415.51 711.81 430.5 711.27 445.5 710.18 460.5 708.62 475.5 706.7 490.5 704.57 505.49 702.4 520.49 700.35 535.49 698.58 550.49 697.22 565.49 696.39 580.48 696.14 595.48 696.49 610.48 697.41 625.48 698.84 640.47 700.67 655.47 702.75 670.47 704.93 685.47 707.03 700.47 708.9 715.46 710.4 730.46 711.4 745.46 711.84 760.46 711.67 775.46 710.92 790.45 709.64 805.45 707.92 820.45 705.9 835.45 703.74 850.44 701.59 865.44 699.63 880.44 688.67 882.13 677.71 883.72 666.75 885.13 655.78 886.29 644.82 887.14 633.86 887.65 622.9 887.79 611.94 887.55 600.97 886.95 590.01 886.01 579.05 884.78 568.09 883.32 557.13 881.7 546.16 880 535.2 878.29 524.24 876.67 513.28 875.21 502.31 873.98 491.35 873.04 480.39 872.44 469.43 872.2 458.47 872.34 447.5 872.85 436.54 873.7 425.58 874.86 414.62 876.27 403.66 877.86 392.69 879.55 381.73 881.26 370.77 882.91 359.81 884.42 348.84 885.72 337.88 886.74 326.92 887.43 315.96 887.77 305 887.72 294.03 887.31 283.07 886.54 272.11 885.46 261.15 884.11 250.19 882.56 239.22 880.89 228.26 879.17 217.3 877.5 206.34 875.94 195.37 874.58 184.41 873.49 173.45 872.7 162.49 872.27 151.53 872.22 140.56 872.54 129.6 873.22 118.64 874.23 107.68 875.51 96.72 877.01 85.75 878.66 74.79 880.37 63.83 882.07 52.87 883.66 41.9 885.08 30.94 886.25 19.98 887.12 3.68 882.73 -1.36 867.84 -1.05 857.87 -0.74 847.89 -0.43 837.92 -0.15 827.94 0.46 812.98 1.32 808 14.03 801.51 26.73 794.54 39.41 787.13 52.08 779.35 64.73 771.29 77.35 763.07 89.94 754.8 102.49 746.61 115 738.63 127.47 730.96 139.9 723.69 152.28 716.89 164.61 710.59 176.89 704.8 189.13 699.49 201.33 694.6 213.48 690.06 225.6 685.75 237.68 681.56 249.74 677.35 261.77 673.01 273.79 668.41 285.8 663.44 297.81 658.04 309.83 652.13 321.86 645.7 333.92 638.77 346.01 631.36 358.14 623.55 370.31 615.43 382.54 607.13 394.83 598.76 407.19 590.46 419.61 582.36 432.11 574.57 444.69 567.19 457.35 560.3 470.09 553.93 482.91 548.09 495.81 542.76 508.78 537.88 521.82 533.38 534.92 529.14 548.09 525.03 561.3 520.94 574.55 516.71 587.84 512.23 601.14 507.38 614.45 502.08 627.77 496.26 641.07 489.89 654.34 482.99 667.57 475.59 680.76 467.76 693.88 459.59 706.94 451.21 719.91 442.74 732.79 434.33 745.58 426.11 758.26 418.21 770.83 410.71 783.28 403.72 787.15 392.78 767.53 392.13 757.45 393.16 747.37 394.46 737.29 395.98 727.21 397.66 717.13 399.43 707.05 401.23 696.97 402.97 686.89 404.6 676.82 406.04 666.74 407.25 656.66 408.16 646.58 408.75" fill="url(#uuunion-grad3)" filter="url(#uuunion-blur2)"></path></svg>