<svg xmlns="http://www.w3.org/2000/svg" version="1.1" xmlns:xlink="http://www.w3.org/1999/xlink" xmlns:svgjs="http://svgjs.dev/svgjs" viewBox="0 0 1422 800"><defs><filter id="uuunion-blur" x="-100%" y="-100%" width="400%" height="400%" color-interpolation-filters="sRGB">
        <feGaussianBlur in="SourceGraphic" stdDeviation="3.5 0" result="blur"></feGaussianBlur>
        <feDropShadow stdDeviation="14.76923076923077" in="blur" dx="12" dy="12" flood-color="#cdcdcd" flood-opacity="0.08" x="0%" y="0%" width="100%" height="100%"></feDropShadow>
      </filter><filter id="uuunion-blur2" x="-100%" y="-100%" width="400%" height="400%" color-interpolation-filters="sRGB">
        <feGaussianBlur in="SourceGraphic" stdDeviation="3.5 0" result="blur"></feGaussianBlur>
        <feDropShadow stdDeviation="14.76923076923077" in="blur" dx="-12" dy="-12" flood-color="#cdcdcd" flood-opacity="0.08" x="0%" y="0%" width="100%" height="100%"></feDropShadow>
      </filter><linearGradient gradientTransform="rotate(350, 0.5, 0.5)" x1="50%" y1="0%" x2="50%" y2="100%" id="uuunion-grad"><stop stop-color="#eeeeee" offset="10%"></stop><stop stop-color="#cdcdcd" offset="90%"></stop></linearGradient><linearGradient gradientTransform="rotate(133, 0.5, 0.5)" x1="50%" y1="0%" x2="50%" y2="100%" id="uuunion-grad2"><stop stop-color="#eeeeee" offset="25%"></stop><stop stop-color="#cdcdcd" offset="100%"></stop></linearGradient><linearGradient gradientTransform="rotate(0, 0.5, 0.5)" x1="50%" y1="0%" x2="50%" y2="100%" id="uuunion-grad3"><stop stop-color="#eeeeee" offset="0%"></stop><stop stop-color="#cdcdcd" offset="75%"></stop></linearGradient></defs><path d="M-143.3 -82.92Q-129.95 -86.96 -116.61 -89.81 -103.27 -90.98 -89.92 -90.27 -76.58 -87.81 -63.24 -84 -49.9 -79.52 -36.55 -75.11 -23.21 -71.54 -9.87 -69.42 3.47 -69.1 16.81 -70.65 30.15 -73.8 43.49 -78.01 56.84 -82.55 70.18 -86.66 83.52 -89.63 96.87 -90.95 110.21 -90.4 123.55 -88.07 136.9 -84.35 150.24 -79.89 163.58 -75.45 176.92 -71.79 190.27 -69.53 203.61 -69.06 216.95 -70.46 230.3 -73.49 243.64 -77.64 256.98 -82.19 270.32 -86.36 283.67 -89.45 297.01 -90.92 310.35 -90.52 323.7 -88.32 337.04 -84.7 350.38 -80.27 363.73 -75.8 377.07 -72.04 390.41 -69.65 403.75 -69.02 417.1 -70.28 430.44 -73.19 443.78 -77.27 457.13 -81.82 470.47 -86.05 483.81 -89.25 497.16 -90.86 510.5 -90.62 523.84 -88.56 537.18 -85.03 550.53 -80.64 563.87 -76.15 577.21 -72.31 590.56 -69.78 603.9 -69 617.24 -70.1 630.58 -72.9 643.93 -76.91 657.27 -81.44 670.61 -85.73 683.96 -89.04 697.3 -90.8 710.64 -90.71 723.99 -88.79 737.33 -85.36 750.67 -81.02 764.01 -76.5 777.36 -72.58 790.7 -69.93 804.04 -69 817.39 -69.95 830.73 -72.62 844.07 -76.55 857.42 -81.07 870.76 -85.41 884.1 -88.82 897.44 -90.72 910.79 -90.79 924.13 -89.01 937.47 -85.69 950.82 -81.39 964.16 -76.86 977.5 -72.86 990.85 -70.08 1004.19 -69 1017.53 -69.8 1030.87 -72.34 1044.22 -76.19 1057.56 -80.7 1070.9 -85.08 1084.25 -88.59 1097.59 -90.63 1110.93 -90.86 1124.28 -89.22 1137.62 -86.01 1150.96 -81.77 1164.31 -77.22 1177.65 -73.15 1190.99 -70.25 1204.33 -69.02 1217.68 -69.66 1231.02 -72.08 1244.36 -75.84 1257.71 -80.32 1271.05 -84.74 1284.39 -88.35 1297.74 -90.53 1311.08 -90.91 1324.42 -89.42 1337.76 -86.32 1351.11 -82.14 1364.45 -77.59 1377.79 -73.45 1391.14 -70.43 1404.48 -69.05 1417.82 -69.54 1431.17 -71.82 1444.51 -75.5 1457.85 -79.94 1471.2 -84.4 1484.54 -88.1 1497.88 -90.42 1511.22 -90.95 1524.57 -89.61 1537.91 -86.62 1551.25 -82.5 1564.6 -77.95 1564.73 -62.99 1564.76 -48.02 1564.68 -33.06 1564.51 -18.09 1564.28 -3.13 1564.03 11.83 1563.81 26.79 1563.67 41.76 1563.63 56.72 1563.69 71.69 1563.86 86.65 1564.08 101.62 1564.33 116.58 1564.55 131.55 1564.71 146.51 1564.76 161.48 1564.71 176.44 1564.56 191.41 1564.34 206.37 1564.09 221.34 1563.86 236.3 1563.7 251.27 1563.63 266.24 1563.67 281.2 1563.81 296.17 1564.02 311.13 1564.27 326.1 1564.5 341.06 1564.68 356.03 1564.76 370.99 1564.73 385.96 1564.6 400.92 1564.39 415.89 1564.15 430.85 1563.91 445.82 1563.73 460.78 1563.64 475.75 1563.65 490.71 1563.77 505.68 1563.97 520.64 1564.21 535.61 1564.45 550.57 1564.64 565.54 1564.75 580.51 1564.75 595.47 1564.64 610.44 1564.45 625.4 1564.21 640.37 1563.97 655.33 1563.77 670.3 1563.65 685.26 1563.64 700.23 1563.73 715.19 1563.91 730.16 1564.15 745.12 1564.4 760.09 1564.6 775.05 1564.73 790.02 1564.76 804.98 1564.68 819.95 1564.5 834.91 1564.27 849.88 1564.02 864.84 1563.81 879.81 1550.49 880.22 1537.17 880.6 1523.85 880.87 1510.53 880.99 1497.21 880.94 1483.89 880.73 1470.57 880.4 1457.25 879.99 1443.93 879.59 1430.61 879.25 1417.29 879.04 1403.97 879 1390.65 879.13 1377.33 879.4 1364.01 879.78 1350.69 880.19 1337.37 880.57 1324.05 880.85 1310.73 880.99 1297.41 880.95 1284.09 880.75 1270.77 880.43 1257.45 880.02 1244.13 879.62 1230.81 879.28 1217.49 879.06 1204.17 879 1190.85 879.11 1177.53 879.37 1164.21 879.74 1150.89 880.16 1137.57 880.54 1124.25 880.83 1110.93 880.98 1097.61 880.96 1084.29 880.78 1070.97 880.46 1057.65 880.06 1044.33 879.65 1031.01 879.3 1017.69 879.07 1004.37 879 991.05 879.09 977.73 879.35 964.41 879.71 951.1 880.12 937.78 880.51 924.46 880.81 911.14 880.98 897.82 880.97 884.5 880.8 871.18 880.49 857.86 880.09 844.54 879.68 831.22 879.32 817.9 879.08 804.58 879 791.26 879.08 777.94 879.32 764.62 879.68 751.3 880.09 737.98 880.48 724.66 880.79 711.34 880.97 698.02 880.98 684.7 880.82 671.38 880.52 658.06 880.13 644.74 879.71 631.42 879.35 618.1 879.1 604.78 879 591.46 879.07 578.14 879.3 564.82 879.65 551.5 880.05 538.18 880.45 524.86 880.77 511.54 880.96 498.22 880.98 484.9 880.84 471.58 880.55 458.26 880.16 444.94 879.75 431.62 879.38 418.3 879.11 404.98 879 391.66 879.05 378.34 879.27 365.02 879.61 351.7 880.02 338.38 880.42 325.06 880.75 311.74 880.95 298.42 880.99 285.1 880.85 271.78 880.57 258.47 880.19 245.15 879.78 231.83 879.4 218.51 879.13 205.19 879 191.87 879.04 178.55 879.25 165.23 879.58 151.91 879.99 138.59 880.39 125.27 880.73 111.95 880.94 98.63 880.99 85.31 880.87 71.99 880.6 58.67 880.23 45.35 879.81 32.03 879.43 18.71 879.15 5.39 879 -7.92 879.03 -21.24 879.23 -34.56 879.55 -47.88 879.95 -61.2 880.36 -74.52 880.71 -87.84 880.93 -101.16 880.99 -114.48 880.89 -127.8 880.63 -141.12 880.26 -141.71 865.21 -142.39 850.16 -143.04 835.11 -143.52 820.06 -143.74 805.01 -143.67 789.96 -143.31 774.91 -142.74 759.86 -142.06 744.81 -141.41 729.76 -140.9 714.71 -140.64 699.66 -140.68 684.61 -141 669.56 -141.55 654.51 -142.23 639.46 -142.89 624.41 -143.42 609.36 -143.71 594.31 -143.71 579.26 -143.42 564.21 -142.89 549.16 -142.23 534.11 -141.56 519.06 -141 504.02 -140.68 488.97 -140.64 473.92 -140.9 458.87 -141.4 443.82 -142.06 428.77 -142.74 413.72 -143.31 398.67 -143.67 383.62 -143.74 368.57 -143.52 353.52 -143.04 338.47 -142.39 323.42 -141.71 308.37 -141.12 293.32 -140.73 278.27 -140.62 263.22 -140.81 248.17 -141.26 233.12 -141.89 218.07 -142.58 203.02 -143.19 187.97 -143.61 172.92 -143.75 157.87 -143.6 142.82 -143.17 127.77 -142.56 112.72 -141.87 97.67 -141.25 82.62 -140.8 67.57 -140.62 52.52 -140.74 37.47 -141.13 22.42 -141.73 7.37 -142.41 -7.67 -143.05 -22.72 -143.53 -37.77 -143.74 -52.82 -143.66 -67.87 -143.3 -82.92" fill="url(#uuunion-grad)"></path><path d="M-143.31 -82.91Q-143.67 -67.86 -143.75 -52.82 -143.54 -37.77 -143.06 -22.72 -142.42 -7.67 -141.74 7.37 -141.14 22.42 -140.75 37.47 -140.63 52.52 -140.81 67.57 -141.26 82.62 -141.88 97.67 -142.57 112.72 -143.18 127.77 -143.61 142.82 -143.76 157.87 -143.62 172.92 -143.2 187.97 -142.59 203.02 -141.9 218.07 -141.27 233.12 -140.82 248.17 -140.63 263.22 -140.74 278.27 -141.13 293.32 -141.72 308.37 -142.4 323.42 -143.05 338.47 -143.53 353.52 -143.75 368.57 -139.05 390.51 -125.53 396.33 -116.63 395.53 -107.74 395.09 -98.84 395.01 -89.95 395.32 -81.05 395.99 -72.16 396.96 -63.26 398.17 -54.37 399.52 -45.47 400.9 -36.57 402.21 -27.68 403.36 -18.78 404.24 -1.97 404.94 0.99 404.99 12.01 401.49 23.04 397.44 34.08 392.93 45.14 388.12 56.2 383.21 67.28 378.41 78.36 373.93 89.46 369.93 100.57 366.52 111.69 363.75 122.82 361.59 133.96 359.92 145.11 358.58 156.26 357.37 167.43 356.04 178.6 354.39 189.77 352.23 200.95 349.45 212.14 345.98 223.33 341.87 234.52 337.22 245.71 332.21 256.9 327.05 268.09 322 279.29 317.28 290.47 313.09 301.66 309.57 312.84 306.76 324.02 304.64 335.19 303.11 346.36 301.97 357.52 300.99 368.67 299.92 379.82 298.51 390.96 296.56 402.09 293.9 413.22 290.48 424.33 286.33 435.44 281.55 446.54 276.35 457.64 270.96 468.73 265.65 479.81 260.68 490.88 256.29 501.95 252.62 513.01 249.75 524.07 247.67 535.12 246.25 546.17 245.3 557.21 244.56 568.25 243.75 579.29 242.59 590.33 240.85 601.37 238.34 612.4 234.99 623.44 230.82 634.47 225.93 645.51 220.55 656.55 214.92 667.59 209.35 678.64 204.13 689.69 199.51 700.74 195.69 711.79 192.74 722.85 190.67 733.92 189.35 744.98 188.57 756.05 188.07 767.13 187.52 778.21 186.62 789.3 185.1 800.39 182.76 811.48 179.5 822.58 175.33 833.68 170.36 844.78 164.8 855.89 158.94 867 153.11 878.11 147.63 889.22 142.78 900.34 138.78 911.46 135.73 922.57 133.65 933.69 132.41 944.81 131.79 955.92 131.51 967.04 131.22 978.16 130.59 989.27 129.31 1000.38 127.16 1011.49 124.01 1022.6 119.86 1033.7 114.82 1044.8 109.11 1055.9 103.03 1067 96.94 1078.1 91.18 1089.19 86.09 1100.28 81.89 1111.37 78.72 1122.45 76.6 1133.53 75.43 1144.62 74.96 1155.7 74.89 1166.78 74.87 1177.85 74.51 1188.93 73.48 1200.01 71.54 1211.09 68.52 1222.17 64.41 1233.25 59.32 1244.33 53.47 1255.41 47.18 1266.49 40.83 1277.58 34.79 1288.67 29.44 1299.76 25.02 1310.86 21.72 1321.96 19.55 1333.06 18.41 1344.16 18.08 1355.27 18.22 1366.38 18.45 1377.5 18.37 1388.62 17.61 1399.74 15.89 1410.87 13.02 1422 8.98 1422.19 -8.32 1422.33 -25.62 1422.38 -42.92 1422.34 -60.23 1422.2 -77.53 1422.02 -94.83 1421.82 -112.14 1421.67 -129.44 1409.37 -128.27 1397.07 -128.82 1384.77 -131 1372.47 -134.5 1360.17 -138.8 1347.87 -143.27 1335.57 -147.27 1323.27 -150.2 1310.98 -151.64 1298.68 -151.38 1286.38 -149.45 1274.08 -146.14 1261.78 -141.93 1249.48 -137.44 1237.18 -133.32 1224.88 -130.18 1212.58 -128.47 1200.28 -128.45 1187.98 -130.12 1175.68 -133.23 1163.38 -137.33 1151.08 -141.82 1138.78 -146.04 1126.48 -149.38 1114.18 -151.35 1101.88 -151.65 1089.58 -150.26 1077.28 -147.36 1064.98 -143.38 1052.68 -138.91 1040.38 -134.6 1028.08 -131.08 1015.78 -128.86 1003.48 -128.27 991.18 -129.39 978.88 -132.07 966.58 -135.9 954.28 -140.33 941.98 -144.72 929.68 -148.41 917.38 -150.87 905.08 -151.74 892.78 -150.9 880.48 -148.46 868.18 -144.78 855.88 -140.4 843.58 -135.97 831.28 -132.12 818.99 -129.42 806.69 -128.27 794.39 -128.84 782.09 -131.03 769.79 -134.54 757.49 -138.84 745.19 -143.32 732.89 -147.3 720.59 -150.22 708.29 -151.65 695.99 -151.37 683.69 -149.42 671.39 -146.1 659.09 -141.89 646.79 -137.4 634.49 -133.28 622.19 -130.15 609.89 -128.46 597.59 -128.46 585.29 -130.14 572.99 -133.26 560.69 -137.37 548.39 -141.86 536.09 -146.08 523.79 -149.41 511.49 -151.36 499.19 -151.65 486.89 -150.23 474.59 -147.32 462.29 -143.34 449.99 -138.87 437.69 -134.56 425.39 -131.05 413.09 -128.84 400.79 -128.27 388.49 -129.41 376.19 -132.1 363.89 -135.94 351.59 -140.38 339.29 -144.76 327 -148.44 314.7 -150.89 302.4 -151.74 290.1 -150.88 277.8 -148.43 265.5 -144.74 253.2 -140.36 240.9 -135.92 228.6 -132.08 216.3 -129.4 204 -128.27 191.7 -128.85 179.4 -131.06 167.1 -134.58 154.8 -138.89 142.5 -143.36 130.2 -147.34 117.9 -150.25 105.6 -151.65 93.3 -151.35 81 -149.39 68.7 -146.06 56.4 -141.84 44.1 -137.35 31.8 -133.25 19.5 -130.13 7.2 -128.46 -5.09 -128.47 -17.39 -130.17 -29.69 -133.3 -41.99 -137.42 -54.29 -141.91 -66.59 -146.12 -78.89 -149.44 -91.19 -151.37 -103.49 -151.64 -115.79 -150.21 -128.09 -147.29 -140.39 -143.29 -152.69 -138.82 -150.24 -124.9 -147.95 -110.95 -145.68 -96.96 -143.31 -82.91" fill="url(#uuunion-grad2)" filter="url(#uuunion-blur)"></path><path d="M1421.99 325.38Q1430.88 324.45 1439.76 323.18 1448.65 321.67 1457.54 320.02 1466.43 318.38 1475.31 316.85 1484.2 315.57 1493.09 314.63 1501.98 314.1 1510.86 314.02 1519.75 314.4 1528.64 315.21 1537.53 316.38 1546.41 317.83 1555.3 319.45 1564.19 321.11 1564.47 338.57 1564.68 356.03 1564.76 373.49 1564.7 390.95 1564.51 408.41 1564.23 425.86 1563.95 443.32 1563.73 460.78 1563.63 478.24 1563.68 495.7 1563.86 513.16 1564.13 530.62 1564.41 548.08 1564.64 565.54 1564.76 583 1564.72 600.46 1564.55 617.92 1564.29 635.38 1564.01 652.84 1563.77 670.3 1563.64 687.76 1563.66 705.22 1563.81 722.67 1564.07 740.13 1564.36 757.59 1564.6 775.05 1564.74 792.51 1564.74 809.97 1564.6 827.43 1564.35 844.89 1564.06 862.35 1563.81 879.81 1551.59 880.19 1539.37 880.54 1527.16 880.81 1514.94 880.97 1502.72 880.98 1490.5 880.86 1478.29 880.6 1466.07 880.26 1453.85 879.88 1441.63 879.52 1429.41 879.23 1417.2 879.04 1404.98 879 1392.76 879.09 1380.54 879.32 1368.33 879.65 1356.11 880.02 1343.89 880.39 1331.67 880.71 1319.45 880.92 1307.24 880.99 1295.02 880.93 1282.8 880.73 1270.58 880.42 1258.37 880.05 1246.15 879.68 1233.93 879.35 1221.71 879.11 1209.5 879 1197.28 879.03 1185.06 879.21 1172.84 879.49 1160.62 879.85 1148.41 880.23 1136.19 880.58 1123.97 880.84 1111.75 880.98 1099.54 880.98 1087.32 880.83 1075.1 880.57 1062.88 880.22 1050.67 879.84 1038.45 879.48 1026.23 879.2 1014.01 879.03 1001.79 879 989.58 879.11 977.36 879.36 965.14 879.69 952.92 880.07 940.71 880.43 928.49 880.74 916.27 880.93 904.05 880.99 891.83 880.91 879.62 880.7 867.4 880.38 855.18 880.01 842.96 879.64 830.75 879.31 818.53 879.09 806.31 879 794.09 879.05 781.88 879.24 769.66 879.53 757.44 879.9 745.22 880.27 733 880.61 720.79 880.86 708.57 880.99 696.35 880.97 684.13 880.81 671.92 880.53 659.7 880.18 647.48 879.8 635.26 879.45 623.05 879.17 610.83 879.02 598.61 879.01 586.39 879.14 574.17 879.39 561.96 879.73 549.74 880.11 537.52 880.47 525.3 880.76 513.09 880.95 500.87 880.99 488.65 880.89 476.43 880.67 464.22 880.34 452 879.97 439.78 879.59 427.56 879.28 415.34 879.07 403.13 879 390.91 879.06 378.69 879.26 366.47 879.57 354.26 879.94 342.04 880.32 329.82 880.65 317.6 880.88 305.38 880.99 293.17 880.95 280.95 880.78 268.73 880.49 256.51 880.13 244.3 879.75 232.08 879.41 219.86 879.15 207.64 879.01 195.43 879.02 183.21 879.16 170.99 879.43 158.77 879.77 146.55 880.15 134.34 880.51 122.12 880.79 109.9 880.96 97.68 880.99 85.47 880.87 73.25 880.63 61.03 880.3 48.81 879.92 36.6 879.55 24.38 879.25 5.88 874.09 -0.77 859.25 -1.18 849.37 -1.57 839.5 -1.91 829.62 -2.18 819.75 -2.11 804.93 -1.38 800 11.15 793.82 23.74 787.61 36.38 781.34 49.04 775 61.73 768.6 74.45 762.17 87.18 755.74 99.91 749.37 112.64 743.09 125.36 736.93 138.06 730.9 150.74 724.97 163.39 719.11 176 713.25 188.58 707.31 201.12 701.24 213.62 694.99 226.08 688.53 238.51 681.87 250.9 675.06 263.27 668.18 275.62 661.34 287.94 654.62 300.26 648.12 312.58 641.9 324.9 635.98 337.22 630.33 349.57 624.87 361.93 619.48 374.31 614.05 386.73 608.42 399.17 602.49 411.64 596.19 424.14 589.5 436.67 582.47 449.22 575.2 461.8 567.85 474.41 560.57 487.02 553.53 499.65 546.88 512.28 540.69 524.92 534.98 537.55 529.69 550.18 524.68 562.79 519.78 575.39 514.78 587.97 509.48 600.53 503.73 613.07 497.41 625.59 490.53 638.09 483.15 650.56 475.43 663.02 467.59 675.46 459.86 687.89 452.49 700.31 445.65 712.73 439.46 725.14 433.93 737.55 428.97 749.97 424.41 762.39 420 774.82 415.45 787.26 410.51 799.72 404.95 809.43 403.69 819.15 401.97 828.87 399.84 838.59 397.37 848.32 394.68 858.04 391.89 867.76 389.15 877.49 386.59 887.21 384.34 896.94 382.48 906.66 381.08 916.39 380.16 926.12 379.68 935.85 379.58 945.57 379.75 955.3 380.07 965.03 380.39 974.76 380.57 984.49 380.48 994.22 380 1003.96 379.07 1013.69 377.65 1023.42 375.76 1033.15 373.45 1042.88 370.81 1052.61 367.98 1062.34 365.1 1072.07 362.31 1081.8 359.75 1091.53 357.56 1101.26 355.82 1111 354.57 1120.72 353.81 1130.45 353.52 1140.18 353.59 1149.91 353.92 1159.64 354.35 1169.37 354.74 1179.09 354.93 1188.82 354.79 1198.54 354.21 1208.27 353.14 1217.99 351.55 1227.72 349.47 1237.44 346.98 1247.16 344.18 1256.88 341.22 1266.6 338.25 1276.32 335.43 1286.04 332.91 1295.75 330.8 1305.47 329.19 1315.19 328.11 1324.9 327.54 1334.61 327.44 1344.33 327.69 1354.04 328.16 1363.75 328.69 1373.46 329.12 1383.17 329.3 1392.87 329.09 1402.58 328.39 1412.29 327.16 1421.99 325.38" fill="url(#uuunion-grad3)" filter="url(#uuunion-blur2)"></path></svg>