<svg xmlns="http://www.w3.org/2000/svg" version="1.1" xmlns:xlink="http://www.w3.org/1999/xlink" xmlns:svgjs="http://svgjs.dev/svgjs" viewBox="0 0 1422 800"><defs><filter id="uuunion-blur" x="-100%" y="-100%" width="400%" height="400%" color-interpolation-filters="sRGB">
        <feGaussianBlur in="SourceGraphic" stdDeviation="1.5 0" result="blur"></feGaussianBlur>
        <feDropShadow stdDeviation="14.76923076923077" in="blur" dx="12" dy="12" flood-color="#8c6849" flood-opacity="0" x="0%" y="0%" width="100%" height="100%"></feDropShadow>
      </filter><filter id="uuunion-blur2" x="-100%" y="-100%" width="400%" height="400%" color-interpolation-filters="sRGB">
        <feGaussianBlur in="SourceGraphic" stdDeviation="1.5 0" result="blur"></feGaussianBlur>
        <feDropShadow stdDeviation="14.76923076923077" in="blur" dx="-12" dy="-12" flood-color="#8c6849" flood-opacity="0" x="0%" y="0%" width="100%" height="100%"></feDropShadow>
      </filter><linearGradient gradientTransform="rotate(37, 0.5, 0.5)" x1="50%" y1="0%" x2="50%" y2="100%" id="uuunion-grad"><stop stop-color="#e5c4a1" offset="10%"></stop><stop stop-color="#8c6849" offset="90%"></stop></linearGradient><linearGradient gradientTransform="rotate(0, 0.5, 0.5)" x1="50%" y1="0%" x2="50%" y2="100%" id="uuunion-grad2"><stop stop-color="#e5c4a1" offset="25%"></stop><stop stop-color="#8c6849" offset="100%"></stop></linearGradient><linearGradient gradientTransform="rotate(360, 0.5, 0.5)" x1="50%" y1="0%" x2="50%" y2="100%" id="uuunion-grad3"><stop stop-color="#e5c4a1" offset="0%"></stop><stop stop-color="#8c6849" offset="75%"></stop></linearGradient></defs><path d="M-143.61 -89.34Q-130.26 -87.67 -116.92 -85.55 -103.57 -83.11 -90.22 -80.49 -76.88 -77.84 -63.53 -75.31 -50.19 -73.06 -36.84 -71.21 -23.49 -69.88 -10.15 -69.14 3.19 -69.03 16.54 -69.56 29.88 -70.71 43.23 -72.4 56.57 -74.53 69.92 -76.98 83.27 -79.6 96.61 -82.25 109.96 -84.77 123.31 -87.01 136.65 -88.84 150 -90.15 163.34 -90.87 176.69 -90.95 190.04 -90.39 203.38 -89.23 216.73 -87.52 230.08 -85.37 243.42 -82.91 256.77 -80.28 270.11 -77.63 283.46 -75.13 296.81 -72.9 310.15 -71.09 323.5 -69.8 336.85 -69.11 350.19 -69.05 363.54 -69.63 376.89 -70.82 390.23 -72.55 403.58 -74.71 416.92 -77.18 430.27 -79.81 443.62 -82.46 456.96 -84.96 470.31 -87.17 483.66 -88.96 497 -90.23 510.35 -90.9 523.69 -90.93 537.04 -90.32 550.39 -89.11 563.73 -87.37 577.08 -85.19 590.43 -82.71 603.77 -80.08 617.12 -77.43 630.46 -74.94 643.81 -72.74 657.16 -70.97 670.5 -69.72 683.85 -69.08 697.2 -69.07 710.54 -69.7 723.89 -70.94 737.24 -72.7 750.58 -74.89 763.93 -77.38 777.27 -80.02 790.62 -82.66 803.97 -85.14 817.31 -87.32 830.66 -89.08 844.01 -90.3 857.35 -90.92 870.7 -90.91 884.05 -90.25 897.39 -88.99 910.74 -87.21 924.08 -85.01 937.43 -82.51 950.78 -79.87 964.12 -77.23 977.47 -74.76 990.82 -72.59 1004.16 -70.85 1017.51 -69.65 1030.85 -69.06 1044.2 -69.1 1057.55 -69.78 1070.89 -71.06 1084.24 -72.86 1097.59 -75.07 1110.93 -77.58 1124.28 -80.22 1137.63 -82.86 1150.97 -85.32 1164.32 -87.48 1177.66 -89.19 1191.01 -90.37 1204.36 -90.94 1217.7 -90.88 1231.05 -90.17 1244.4 -88.87 1257.74 -87.05 1271.09 -84.82 1284.44 -82.31 1297.78 -79.66 1311.13 -77.03 1324.48 -74.58 1337.82 -72.44 1351.17 -70.74 1364.51 -69.58 1377.86 -69.04 1391.21 -69.13 1404.55 -69.86 1417.9 -71.18 1431.25 -73.02 1444.59 -75.26 1457.94 -77.78 1471.29 -80.43 1484.63 -83.06 1497.98 -85.5 1511.32 -87.63 1524.67 -89.31 1538.02 -90.44 1551.36 -90.96 1564.71 -90.84 1564.76 -75.66 1564.73 -60.47 1564.63 -45.29 1564.47 -30.1 1564.27 -14.92 1564.05 0.26 1563.86 15.44 1563.72 30.63 1563.64 45.81 1563.64 60.99 1563.71 76.18 1563.86 91.36 1564.05 106.55 1564.26 121.73 1564.46 136.92 1564.62 152.1 1564.73 167.29 1564.76 182.47 1564.71 197.66 1564.59 212.84 1564.42 228.03 1564.21 243.21 1564.01 258.4 1563.82 273.58 1563.69 288.77 1563.63 303.95 1563.65 319.14 1563.74 334.32 1563.9 349.51 1564.1 364.69 1564.31 379.88 1564.5 395.06 1564.66 410.25 1564.74 425.43 1564.76 440.62 1564.69 455.8 1564.56 470.99 1564.37 486.17 1564.16 501.36 1563.96 516.54 1563.79 531.73 1563.67 546.91 1563.63 562.1 1563.67 577.28 1563.78 592.47 1563.94 607.65 1564.15 622.84 1564.36 638.02 1564.55 653.21 1564.68 668.39 1564.75 683.58 1564.75 698.76 1564.66 713.95 1564.51 729.13 1564.32 744.32 1564.11 759.5 1563.91 774.69 1563.75 789.87 1563.65 805.06 1563.63 820.24 1563.69 835.43 1563.81 850.61 1563.99 865.8 1564.2 880.98 1550.87 880.99 1537.54 880.94 1524.21 880.84 1510.87 880.69 1497.54 880.5 1484.21 880.27 1470.88 880.03 1457.55 879.79 1444.22 879.56 1430.89 879.36 1417.55 879.19 1404.22 879.07 1390.89 879.01 1377.56 879 1364.23 879.05 1350.9 879.15 1337.57 879.31 1324.24 879.5 1310.9 879.73 1297.57 879.96 1284.24 880.21 1270.91 880.43 1257.58 880.64 1244.25 880.8 1230.92 880.92 1217.58 880.98 1204.25 880.99 1190.92 880.94 1177.59 880.83 1164.26 880.68 1150.93 880.48 1137.6 880.26 1124.26 880.02 1110.93 879.78 1097.6 879.55 1084.27 879.35 1070.94 879.18 1057.61 879.07 1044.28 879 1030.95 879 1017.61 879.05 1004.28 879.16 990.95 879.32 977.62 879.52 964.29 879.74 950.96 879.98 937.63 880.22 924.29 880.45 910.96 880.65 897.63 880.81 884.3 880.93 870.97 880.99 857.64 880.99 844.31 880.93 830.97 880.82 817.64 880.66 804.31 880.46 790.98 880.24 777.65 880 764.32 879.76 750.99 879.53 737.66 879.33 724.32 879.17 710.99 879.06 697.66 879 684.33 879 671 879.06 657.67 879.17 644.34 879.34 631.01 879.54 617.67 879.76 604.34 880 591.01 880.24 577.68 880.47 564.35 880.67 551.02 880.82 537.69 880.93 524.35 880.99 511.02 880.99 497.69 880.93 484.36 880.81 471.03 880.65 457.7 880.45 444.37 880.22 431.04 879.98 417.7 879.74 404.37 879.51 391.04 879.32 377.71 879.16 364.38 879.05 351.05 879 337.72 879.01 324.39 879.07 311.05 879.19 297.72 879.35 284.39 879.55 271.06 879.78 257.73 880.02 244.4 880.26 231.07 880.48 217.74 880.68 204.4 880.83 191.07 880.94 177.74 880.99 164.41 880.98 151.08 880.92 137.75 880.8 124.42 880.63 111.08 880.43 97.75 880.2 84.42 879.96 71.09 879.72 57.76 879.5 44.43 879.3 31.1 879.15 17.77 879.05 4.43 879 -8.89 879.01 -22.22 879.08 -35.55 879.2 -48.88 879.36 -62.21 879.57 -75.54 879.8 -88.87 880.04 -102.21 880.28 -115.54 880.5 -128.87 880.69 -142.2 880.84 -141.62 865.68 -141.13 850.53 -140.78 835.37 -140.62 820.21 -140.69 805.05 -140.96 789.89 -141.4 774.73 -141.95 759.57 -142.53 744.41 -143.07 729.25 -143.48 714.09 -143.71 698.93 -143.73 683.77 -143.54 668.62 -143.15 653.46 -142.64 638.3 -142.06 623.14 -141.49 607.98 -141.03 592.82 -140.72 577.66 -140.62 562.5 -140.73 547.34 -141.05 532.18 -141.53 517.02 -142.09 501.86 -142.67 486.7 -143.18 471.55 -143.56 456.39 -143.74 441.23 -143.7 426.07 -143.46 410.91 -143.04 395.75 -142.5 380.59 -141.91 365.43 -141.37 350.27 -140.93 335.11 -140.68 319.95 -140.63 304.79 -140.79 289.63 -141.16 274.48 -141.66 259.32 -142.24 244.16 -142.81 229 -143.29 213.84 -143.62 198.68 -143.75 183.52 -143.66 168.36 -143.37 153.2 -142.91 138.04 -142.35 122.88 -141.77 107.72 -141.25 92.56 -140.85 77.41 -140.64 62.25 -140.65 47.09 -140.87 31.93 -141.27 16.77 -141.8 1.61 -142.38 -13.54 -142.94 -28.7 -143.39 -43.86 -143.67 -59.02 -143.75 -74.18 -143.61 -89.34" fill="url(#uuunion-grad)"></path><path d="M-143.62 -89.34Q-143.76 -74.18 -143.68 -59.02 -143.4 -43.86 -142.95 -28.7 -142.39 -13.54 -141.81 1.61 -141.28 16.77 -140.88 31.93 -140.66 47.09 -140.65 62.25 -140.86 77.4 -141.26 92.56 -141.78 107.72 -142.36 122.88 -142.92 138.04 -143.38 153.2 -143.67 168.36 -143.76 183.52 -143.63 198.68 -143.3 213.84 -142.82 229 -142.25 244.16 -141.67 259.32 -141.17 274.47 -140.8 289.63 -140.64 304.79 -140.69 319.95 -140.94 335.11 -141.38 350.27 -141.92 365.43 -142.51 380.59 -143.05 395.75 -134.15 396.23 -125.26 396.81 -116.37 397.47 -107.47 398.19 -98.58 398.97 -89.69 399.77 -80.79 400.58 -71.9 401.37 -63.01 402.12 -54.11 402.82 -45.22 403.45 -36.32 403.99 -27.43 404.42 -18.54 404.74 -1.73 404.98 1.23 404.99 12.42 401.77 23.62 398.34 34.82 394.72 46.01 390.93 57.21 386.98 68.41 382.91 79.6 378.77 90.8 374.58 101.99 370.39 113.18 366.24 124.36 362.19 135.54 358.26 146.72 354.49 157.89 350.92 169.05 347.55 180.21 344.41 191.37 341.5 202.51 338.81 213.65 336.33 224.79 334.03 235.91 331.89 247.03 329.86 258.14 327.9 269.25 325.97 280.35 324.01 291.44 321.98 302.53 319.83 313.61 317.53 324.68 315.02 335.75 312.3 346.81 309.33 357.87 306.11 368.92 302.64 379.97 298.93 391.02 295 402.06 290.88 413.1 286.61 424.13 282.23 435.17 277.8 446.2 273.37 457.23 268.99 468.26 264.71 479.29 260.58 490.33 256.64 501.36 252.94 512.39 249.49 523.43 246.31 534.46 243.41 545.5 240.79 556.54 238.41 567.59 236.26 578.64 234.31 589.69 232.49 600.74 230.77 611.8 229.08 622.86 227.37 633.93 225.57 645 223.64 656.08 221.52 667.15 219.18 678.24 216.56 689.32 213.66 700.41 210.46 711.51 206.96 722.61 203.17 733.71 199.12 744.81 194.84 755.92 190.37 767.03 185.77 778.14 181.1 789.26 176.42 800.37 171.8 811.49 167.29 822.61 162.95 833.73 158.83 844.85 154.99 855.97 151.44 867.09 148.21 878.21 145.31 889.33 142.73 900.45 140.45 911.57 138.44 922.68 136.66 933.8 135.05 944.91 133.56 956.03 132.11 967.13 130.65 978.24 129.1 989.35 127.39 1000.45 125.47 1011.55 123.29 1022.65 120.81 1033.75 117.99 1044.84 114.82 1055.93 111.31 1067.02 107.45 1078.11 103.29 1089.2 98.85 1100.28 94.2 1111.37 89.38 1122.45 84.48 1133.53 79.55 1144.61 74.68 1155.69 69.93 1166.77 65.37 1177.85 61.07 1188.93 57.07 1200.01 53.41 1211.09 50.12 1222.17 47.2 1233.25 44.65 1244.33 42.45 1255.42 40.57 1266.51 38.96 1277.6 37.55 1288.69 36.28 1299.78 35.08 1310.88 33.86 1321.98 32.55 1333.08 31.08 1344.19 29.37 1355.29 27.37 1366.4 25.02 1377.52 22.3 1388.63 19.19 1399.75 15.67 1410.87 11.76 1422 7.5 1422.16 -9.82 1422.29 -27.16 1422.37 -44.5 1422.38 -61.83 1422.31 -79.17 1422.19 -96.5 1422.03 -113.84 1421.86 -131.18 1409.55 -129.67 1397.24 -128.68 1384.94 -128.26 1372.63 -128.42 1360.32 -129.16 1348.02 -130.44 1335.71 -132.2 1323.4 -134.34 1311.09 -136.77 1298.79 -139.36 1286.48 -141.98 1274.17 -144.5 1261.87 -146.8 1249.56 -148.76 1237.25 -150.28 1224.95 -151.28 1212.64 -151.73 1200.33 -151.58 1188.02 -150.86 1175.72 -149.6 1163.41 -147.86 1151.1 -145.72 1138.8 -143.3 1126.49 -140.72 1114.18 -138.1 1101.87 -135.57 1089.57 -133.26 1077.26 -131.29 1064.95 -129.76 1052.65 -128.73 1040.34 -128.27 1028.03 -128.39 1015.72 -129.09 1003.42 -130.34 991.11 -132.07 978.8 -134.19 966.5 -136.6 954.19 -139.19 941.88 -141.81 929.57 -144.34 917.27 -146.65 904.96 -148.64 892.65 -150.19 880.35 -151.23 868.04 -151.71 855.73 -151.61 843.42 -150.93 831.12 -149.7 818.81 -147.99 806.5 -145.88 794.2 -143.47 781.89 -140.89 769.58 -138.27 757.28 -135.73 744.97 -133.41 732.66 -131.41 720.35 -129.84 708.05 -128.78 695.74 -128.28 683.43 -128.37 671.13 -129.03 658.82 -130.24 646.51 -131.94 634.2 -134.04 621.9 -136.43 609.59 -139.01 597.28 -141.63 584.98 -144.18 572.67 -146.51 560.36 -148.52 548.05 -150.1 535.75 -151.18 523.44 -151.7 511.13 -151.64 498.83 -150.99 486.52 -149.8 474.21 -148.12 461.9 -146.03 449.6 -143.64 437.29 -141.07 424.98 -138.44 412.68 -135.9 400.37 -133.55 388.06 -131.53 375.76 -129.93 363.45 -128.84 351.14 -128.3 338.83 -128.34 326.53 -128.97 314.22 -130.14 301.91 -131.81 289.61 -133.89 277.3 -136.27 264.99 -138.83 252.68 -141.46 240.38 -144.01 228.07 -146.36 215.76 -148.4 203.46 -150.01 191.15 -151.12 178.84 -151.68 166.53 -151.66 154.23 -151.05 141.92 -149.89 129.61 -148.24 117.31 -146.18 105 -143.81 92.69 -141.24 80.38 -138.62 68.08 -136.06 55.77 -133.7 43.46 -131.66 31.16 -130.03 18.85 -128.89 6.54 -128.32 -5.76 -128.32 -18.06 -128.91 -30.37 -130.05 -42.68 -131.69 -54.98 -133.74 -67.29 -136.1 -79.6 -138.66 -91.9 -141.28 -104.21 -143.84 -116.52 -146.21 -128.83 -148.27 -146.1 -142.79 -148.7 -120.24 -146.23 -104.8 -143.62 -89.34" fill="url(#uuunion-grad2)" filter="url(#uuunion-blur)"></path><path d="M1421.61 324.5Q1430.49 323.8 1439.36 323.01 1448.24 322.13 1457.12 321.2 1465.99 320.24 1474.87 319.27 1483.75 318.32 1492.62 317.42 1501.5 316.58 1510.38 315.83 1519.25 315.19 1528.13 314.67 1537.01 314.3 1545.88 314.07 1554.76 314 1563.63 314.08 1563.72 331.79 1563.9 349.51 1564.13 367.22 1564.38 384.94 1564.59 402.66 1564.72 420.37 1564.76 438.09 1564.69 455.8 1564.53 473.52 1564.3 491.23 1564.06 508.95 1563.84 526.67 1563.68 544.38 1563.63 562.1 1563.68 579.81 1563.83 597.53 1564.04 615.24 1564.29 632.96 1564.52 650.68 1564.68 668.39 1564.76 686.11 1564.73 703.82 1564.6 721.54 1564.39 739.26 1564.15 756.97 1563.91 774.69 1563.73 792.4 1563.64 810.12 1563.65 827.83 1563.76 845.55 1563.96 863.27 1564.2 880.98 1551.97 880.99 1539.74 880.96 1527.52 880.87 1515.29 880.74 1503.06 880.58 1490.83 880.39 1478.6 880.17 1466.37 879.95 1454.15 879.73 1441.92 879.53 1429.69 879.34 1417.46 879.19 1405.23 879.08 1393 879.01 1380.78 879 1368.55 879.03 1356.32 879.1 1344.09 879.23 1331.86 879.39 1319.63 879.58 1307.41 879.79 1295.18 880.01 1282.95 880.23 1270.72 880.44 1258.49 880.62 1246.27 880.78 1234.04 880.9 1221.81 880.97 1209.58 880.99 1197.35 880.97 1185.12 880.9 1172.9 880.78 1160.67 880.63 1148.44 880.44 1136.21 880.23 1123.98 880.01 1111.75 879.79 1099.53 879.58 1087.3 879.39 1075.07 879.23 1062.84 879.11 1050.61 879.03 1038.38 879 1026.16 879.01 1013.93 879.08 1001.7 879.19 989.47 879.34 977.24 879.52 965.02 879.73 952.79 879.95 940.56 880.17 928.33 880.38 916.1 880.58 903.87 880.74 891.65 880.87 879.42 880.96 867.19 880.99 854.96 880.98 842.73 880.92 830.5 880.82 818.28 880.67 806.05 880.49 793.82 880.29 781.59 880.07 769.36 879.85 757.13 879.63 744.91 879.44 732.68 879.27 720.45 879.13 708.22 879.04 695.99 879 683.77 879 671.54 879.06 659.31 879.16 647.08 879.3 634.85 879.47 622.62 879.68 610.4 879.89 598.17 880.11 585.94 880.33 573.71 880.53 561.48 880.7 549.25 880.84 537.03 880.94 524.8 880.99 512.57 880.99 500.34 880.94 488.11 880.85 475.88 880.71 463.66 880.54 451.43 880.34 439.2 880.13 426.97 879.9 414.74 879.69 402.52 879.48 390.29 879.31 378.06 879.16 365.83 879.06 353.6 879.01 341.37 879 329.15 879.04 316.92 879.13 304.69 879.26 292.46 879.43 280.23 879.62 268 879.84 255.78 880.06 243.55 880.28 231.32 880.48 219.09 880.66 206.86 880.81 194.63 880.92 182.41 880.98 170.18 880.99 157.95 880.96 145.72 880.88 133.49 880.75 121.27 880.59 109.04 880.4 96.81 880.18 84.58 879.96 72.35 879.74 60.12 879.54 47.9 879.35 35.67 879.2 23.44 879.08 5.27 874.07 -0.34 859.25 -0.06 849.37 0.16 839.5 0.31 829.62 0.38 819.75 0.56 804.93 1.26 800 13.65 793.82 26 787.64 38.34 781.43 50.66 775.19 62.97 768.91 75.27 762.59 87.57 756.23 99.87 749.84 112.18 743.42 124.5 736.99 136.84 730.56 149.2 724.14 161.58 717.75 173.99 711.4 186.42 705.11 198.88 698.89 211.37 692.75 223.89 686.68 236.44 680.67 249.01 674.74 261.6 668.84 274.21 662.98 286.83 657.13 299.47 651.26 312.12 645.36 324.77 639.39 337.42 633.33 350.07 627.18 362.72 620.9 375.35 614.51 387.97 608 400.57 601.37 413.16 594.64 425.73 587.83 438.27 580.97 450.8 574.09 463.3 567.22 475.79 560.4 488.25 553.67 500.7 547.04 513.14 540.56 525.56 534.24 537.96 528.09 550.37 522.11 562.76 516.3 575.16 510.64 587.55 505.11 599.95 499.67 612.36 494.28 624.77 488.9 637.19 483.48 649.63 477.97 662.07 472.34 674.54 466.53 687.01 460.53 699.5 454.31 712 447.87 724.51 441.19 737.04 434.31 749.57 427.25 762.12 420.03 774.67 412.72 787.22 405.36 799.78 398.01 809.52 395.98 819.25 394.02 828.99 392.17 838.72 390.45 848.46 388.86 858.19 387.43 867.92 386.15 877.65 385.03 887.38 384.07 897.11 383.25 906.84 382.57 916.57 382.01 926.3 381.55 936.03 381.16 945.75 380.81 955.48 380.49 965.21 380.15 974.93 379.78 984.65 379.34 994.38 378.81 1004.1 378.16 1013.82 377.38 1023.54 376.45 1033.26 375.36 1042.98 374.1 1052.7 372.68 1062.42 371.09 1072.13 369.34 1081.85 367.46 1091.57 365.46 1101.28 363.37 1111 361.2 1120.71 358.99 1130.42 356.76 1140.13 354.55 1149.84 352.39 1159.56 350.31 1169.27 348.33 1178.98 346.48 1188.68 344.77 1198.39 343.22 1208.1 341.84 1217.81 340.64 1227.52 339.61 1237.22 338.76 1246.93 338.06 1256.63 337.5 1266.34 337.07 1276.05 336.72 1285.75 336.45 1295.45 336.22 1305.16 335.99 1314.86 335.74 1324.57 335.43 1334.27 335.03 1343.98 334.52 1353.68 333.87 1363.38 333.07 1373.09 332.09 1382.79 330.93 1392.5 329.59 1402.2 328.06 1411.91 326.36 1421.61 324.5" fill="url(#uuunion-grad3)" filter="url(#uuunion-blur2)"></path></svg>