<svg id="visual" viewBox="0 0 960 540" width="960" height="540" xmlns="http://www.w3.org/2000/svg" xmlns:xlink="http://www.w3.org/1999/xlink" version="1.1"><rect x="0" y="0" width="960" height="540" fill="#2F1B0D"></rect><path d="M478 0L477.2 18C476.3 36 474.7 72 478.2 108C481.7 144 490.3 180 484 216C477.7 252 456.3 288 453.2 324C450 360 465 396 474.3 432C483.7 468 487.3 504 489.2 522L491 540L0 540L0 522C0 504 0 468 0 432C0 396 0 360 0 324C0 288 0 252 0 216C0 180 0 144 0 108C0 72 0 36 0 18L0 0Z" fill="#8B5E3C" stroke-linecap="round" stroke-linejoin="miter"></path></svg>