<svg id="visual" viewBox="0 0 960 540" width="960" height="540" xmlns="http://www.w3.org/2000/svg" xmlns:xlink="http://www.w3.org/1999/xlink" version="1.1"><rect x="0" y="0" width="960" height="540" fill="#b6c9d1"></rect><path d="M0 332L13.3 334C26.7 336 53.3 340 80 339.5C106.7 339 133.3 334 160 324.5C186.7 315 213.3 301 240 305.7C266.7 310.3 293.3 333.7 320 338.8C346.7 344 373.3 331 400 331.3C426.7 331.7 453.3 345.3 480 361.8C506.7 378.3 533.3 397.7 560 389.5C586.7 381.3 613.3 345.7 640 339.3C666.7 333 693.3 356 720 359.8C746.7 363.7 773.3 348.3 800 332.2C826.7 316 853.3 299 880 305C906.7 311 933.3 340 946.7 354.5L960 369L960 541L946.7 541C933.3 541 906.7 541 880 541C853.3 541 826.7 541 800 541C773.3 541 746.7 541 720 541C693.3 541 666.7 541 640 541C613.3 541 586.7 541 560 541C533.3 541 506.7 541 480 541C453.3 541 426.7 541 400 541C373.3 541 346.7 541 320 541C293.3 541 266.7 541 240 541C213.3 541 186.7 541 160 541C133.3 541 106.7 541 80 541C53.3 541 26.7 541 13.3 541L0 541Z" fill="#4e7587" stroke-linecap="round" stroke-linejoin="miter"></path></svg>